<svg width="156" height="37" viewBox="0 0 156 37" fill="none" xmlns="http://www.w3.org/2000/svg">
<g clip-path="url(#clip0_302_33)">
<path d="M48.8 34.3L48.4 31.5C50.4 31.2 52.2 30.9 54 30.5C55.8 30.1 57.5 29.7 59.3 29.1L59.9 31.8C58.2 32.3 56.4 32.8 54.6 33.2C52.8 33.6 50.9 34 48.8 34.3ZM50.4 10.7C51.5 9.3 52.4 7.9 53.1 6.4C53.8 4.9 54.4 3.5 54.8 2L57.3 2.7C57.1 3.3 56.9 4 56.6 4.6H58.2C59 4.6 59.7 4.8 60.1 5.3C60.5 5.8 60.5 6.4 60.2 7.3C60 8 59.7 8.6 59.4 9.1C59.1 9.7 58.7 10.2 58.4 10.8H58.7C59.6 10.8 60.2 11.1 60.5 11.6C60.8 12.1 60.9 12.7 60.8 13.3L59.4 27.2H49.9L51.5 11.4L50.4 10.7ZM52.7 24.5H54L54.4 20.1H53.1L52.7 24.5ZM53.3 17.7H54.6L55 13.6H53.7L53.3 17.7ZM53.4 10.9H55.7C56 10.4 56.4 9.8 56.7 9.2C57 8.6 57.3 8 57.5 7.4H55.4C54.8 8.6 54.1 9.8 53.4 10.9ZM56 24.5H57.2L57.6 20.1H56.4L56 24.5ZM56.6 17.7H57.8L58.2 13.6H57L56.6 17.7ZM64.1 35.1L64.9 26.3H60.4L60.7 23.5H65.2L65.7 18.4H61.8L62.1 15.5H66L66.5 10.4H62L62.3 7.6H64.7C64.5 6.8 64.2 6.1 64 5.3C63.8 4.5 63.5 3.8 63.2 3.2L65.7 2.3C66 3 66.3 3.8 66.6 4.5C66.8 5.2 67 6 67.3 6.8L65.5 7.5H68.9C69.3 6.6 69.7 5.8 70 4.9C70.3 4 70.7 3.1 70.9 2.2L73.5 3.1C73.3 3.8 73 4.5 72.7 5.3C72.4 6 72.1 6.8 71.7 7.5H73.8L73.5 10.3H69.3L68.8 15.4H72.6L72.3 18.3H68.5L68 23.4H72.5L72.2 26.2H67.7L67 35.1H64.1Z" fill="white"/>
<path d="M76.7 34.7L75 32.3C75.7 31.7 76.3 31 76.9 30.4C77.5 29.8 78 29.2 78.5 28.4L80 15.9H77.5L77.8 12.8H80.5C81.4 12.8 82 13.1 82.4 13.6C82.8 14.1 83 14.9 82.9 15.9L81.6 27.2C82.4 28.8 83.6 30 85.2 30.8C86.9 31.6 88.7 32 90.8 32C92.4 32 93.7 31.9 94.9 31.6C96.1 31.3 97.1 30.9 98.1 30.4L99.1 33.1C98 33.7 96.8 34.2 95.3 34.5C93.8 34.8 92.2 35 90.4 35C88.5 35 86.7 34.7 84.9 34C83.1 33.3 81.5 32.2 80.3 30.7C79.3 32.1 78.1 33.4 76.7 34.7ZM84.6 8.50001L81.9 9.70001C81.2 7.30001 80.4 5.30001 79.4 3.60001L82 2.40001C83 4.20001 83.9 6.20001 84.6 8.50001ZM89.3 30.5L90.2 21.4C88.8 23.9 86.8 26.3 84.2 28.7L82.4 26.6C83.8 25.5 85 24.2 86.1 23C87.2 21.7 88.1 20.3 88.9 18.9H85L85.9 10.4H91.2L91.5 7.80001H85.3L85.6 5.40001H91.8L92.1 2.20001H94.8L94.5 5.40001H100.8L100.5 7.80001H94.3L94 10.3H97.3C98.2 10.3 98.8 10.5 99.1 11C99.4 11.4 99.5 12 99.5 12.7L98.8 18.9H93.2L93 20.3L94.5 19.3C95.4 20.6 96.3 21.9 97.1 23.2C97.9 24.5 98.7 26 99.4 27.6L97.1 29.1C96.5 27.7 95.8 26.4 95.1 25.1C94.4 23.8 93.6 22.6 92.9 21.5L92 30.5H89.3ZM87.8 16.4H90.6L90.9 12.8H88.1L87.8 16.4ZM93.4 16.4H96.4L96.8 12.8H93.7L93.4 16.4Z" fill="white"/>
<path d="M104.2 34.7L102.5 32.3C103.2 31.7 103.9 31.1 104.5 30.4C105.1 29.8 105.7 29.1 106.3 28.4L107.8 16H105L105.3 12.9H108.2C109.1 12.9 109.7 13.2 110.2 13.7C110.6 14.2 110.8 15 110.7 16L109.2 28.3C110.1 29.6 111.3 30.5 112.9 31.1C114.4 31.7 116.1 32 118 32C119.6 32 121 31.9 122.3 31.6C123.5 31.3 124.6 30.9 125.6 30.4L126.6 33.1C125.5 33.7 124.2 34.2 122.7 34.5C121.2 34.8 119.6 35 117.7 35C115.9 35 114.1 34.7 112.3 34.1C110.5 33.5 109 32.5 107.7 31C106.6 32.3 105.4 33.5 104.2 34.7ZM111.9 8.60002L109.2 9.90002C108.8 8.80002 108.3 7.70002 107.8 6.60002C107.3 5.50002 106.7 4.60002 106.2 3.70002L108.8 2.40002C109.4 3.30002 109.9 4.30002 110.4 5.30002C111 6.40002 111.5 7.40002 111.9 8.60002ZM111 29.6L113.1 10.3H117.7C117.4 9.90002 117.1 9.50002 116.7 9.10002C116.4 8.70002 116.1 8.40002 115.8 8.10002L117.6 6.60002C118.1 7.10002 118.6 7.70002 119.1 8.30002C119.6 8.90002 120.1 9.60002 120.6 10.2C121.2 9.50002 121.7 8.80002 122.3 8.10002C122.9 7.40002 123.4 6.60002 123.9 5.80002H113.7L114 3.30002H125.3C126.2 3.30002 126.8 3.60002 127.1 4.20002C127.4 4.80002 127.3 5.50002 126.8 6.20002C126.4 6.80002 125.9 7.50002 125.4 8.30002C124.9 9.00002 124.3 9.80002 123.8 10.5H124.7C125.5 10.5 126.2 10.7 126.7 11.2C127.2 11.7 127.4 12.3 127.3 13.2L125.9 26.7C125.8 27.9 125.5 28.8 124.9 29.3C124.4 29.9 123.6 30.2 122.7 30.3L121.8 30.4L121.6 27.6L122.3 27.5C122.6 27.5 122.8 27.3 122.9 27.1C123 26.9 123.1 26.5 123.2 25.9L123.4 24.2H120L119.5 29.1H117L117.5 24.2H114.2L113.6 29.9H111V29.6ZM114.5 21.4H117.7L118 18.4H114.8L114.5 21.4ZM115.1 16H118.3L118.6 13.1H115.4L115.1 16ZM120.2 21.4H123.6L123.9 18.4H120.5L120.2 21.4ZM120.7 16H124.1L124.4 13.1H121L120.7 16Z" fill="white"/>
<path d="M133.6 35.1L135.1 20.7C134.3 21.5 133.4 22.3 132.5 23.1L130.4 20.8C132.2 19.3 133.9 17.7 135.3 16.1C136.7 14.5 138.1 12.8 139.3 11L141.6 13C141.1 13.7 140.6 14.3 140.1 15C139.6 15.7 139 16.3 138.5 17L136.6 35.2H133.6V35.1ZM134 13.1L131.8 11C133.3 9.69998 134.7 8.19998 135.9 6.79998C137.1 5.29998 138.2 3.79998 139.2 2.09998L141.7 3.79998C140.6 5.49998 139.5 7.09998 138.2 8.59998C137.1 10.1 135.6 11.6 134 13.1ZM142.8 28.6C143 29.8 143.3 30.7 143.7 31.3C144.1 31.9 144.6 32.1 145.3 32.1C146.7 32.1 147.5 30.9 147.7 28.5L149 15.9H142.1L142.4 12.6H155.5L155.2 15.9H152.1L150.8 28.8C150.6 30.7 150.1 32.2 149.2 33.4C148.3 34.6 147.1 35.2 145.4 35.2C143.8 35.2 142.5 34.7 141.6 33.6C140.7 32.5 140.1 31.1 139.8 29.3L142.8 28.6ZM155.7 3.59998L155.4 6.89998H143.7L144 3.59998H155.7Z" fill="white"/>
<path d="M36.6 16.9C36.7 18.3 36.8 19.6 36.9 21C35.8 21.1 34.9 21.1 34 21.1C29.3 21.3 24.8 20.2 20.5 18.6C16.1 17 11.6 15.3 6.99998 14.3C6.19998 14.1 5.49998 14 4.59998 13.8C4.69998 13.6 4.79998 13.4 4.99998 13.3C5.49998 12.7 6.09998 12.1 6.59998 11.4C6.99998 10.9 7.49998 10.8 8.09998 10.8C10.8 10.8 13.6 10.8 16.3 10.8C21.7 10.8 27 10.8 32.4 10.8C32.9 10.8 33.2 10.9 33.5 11.3C34.3 12.3 35.1 13.4 35.7 14.7C31.2 14.9 26.7 14.7 22.3 15.3C22.3 15.4 22.3 15.4 22.3 15.5C22.5 15.6 22.8 15.8 23 15.9C25.3 17 27.8 17.3 30.3 17.3C32.2 17.3 34.1 17.2 35.9 17.1C36.1 16.9 36.3 16.9 36.6 16.9Z" fill="white"/>
<path d="M3.3 23.6C7.7 23.6 12.2 23.6 16.8 23.6C16.6 23.4 16.5 23.3 16.4 23.3C14.4 22.5 12.4 21.5 10.2 21.1C7.6 20.6 5 20.6 2.4 20.7C1.2 20.8 1.4 20.9 1 19.8C0.6 18.8 0.4 17.7 0 16.6C1.1 16.7 2 16.7 2.9 16.8C8.4 17.2 13.7 18.7 18.9 20.6C23.3 22.2 27.8 23.6 32.4 24.2C32.9 24.3 33.5 24.3 34.1 24.4C33.6 25 33.2 25.6 32.7 26.2C31.8 27.5 30.6 27.9 29 27.9C22.2 27.8 15.4 27.8 8.7 27.8C7.5 27.8 6.4 27.5 5.6 26.5C4.8 25.6 3.9 24.6 3.1 23.7C3.2 23.7 3.2 23.7 3.3 23.6Z" fill="white"/>
<path d="M36.8 25.2C34.3 30.8 27.5 37.2 18 36.7C13.4 36.4 9.3 34.9 5.9 31.8C3.4 29.6 1.6 26.9 0.5 23.7C1.7 24.7 2.8 25.7 4 26.6C11.2 32.3 21.9 33.4 30 29.3C31.9 28.3 33.6 27.1 35.1 25.6C35.6 24.9 36.1 25.2 36.8 25.2Z" fill="white"/>
<path d="M18 -1.34856e-06C15.8 0.0999987 13.6 0.599999 11.6 1.4C9.7 2.2 8 3.3 6.5 4.6C5.1 5.8 3.8 7.2 2.8 8.8C1.9 10.2 1.3 11.7 0.5 13.1C0.5 13.1 2.3 13.3 2.9 13.6C2.9 13.6 4.3 11.9 5.8 10.6C7.8 9.2 9.9 8 12.3 7.3C15.5 6.3 18.8 6.1 22.2 6.3C25.7 6.6 29.1 7.3 32.2 8.9C33.8 9.7 35.3 10.7 36.8 11.5C34.6 5.8 27.7 -0.500001 18 -1.34856e-06Z" fill="white"/>
</g>
<defs>
<clipPath id="clip0_302_33">
<rect width="155.7" height="36.7" fill="white"/>
</clipPath>
</defs>
</svg>
