<svg width="426" height="122" viewBox="0 0 426 122" fill="none" xmlns="http://www.w3.org/2000/svg">
<g clip-path="url(#clip0_342_42)">
<path d="M13.5069 51.7438H45.8326V39.301H13.5069V12.5945H48.5643V0H0V92.5622H50.5372V80.1194H13.5069V51.7438Z" fill="white"/>
<path d="M103.047 25.6443L87.871 51.1368C87.4157 50.2264 86.8087 49.1642 86.3534 48.2537L73.6053 25.6443H57.8219L79.6758 59.7861L56.7595 92.5622H72.2394L85.4428 71.1667C86.2016 69.9527 86.6569 69.0423 87.1122 68.2836C87.7193 69.3458 88.3263 70.2562 88.7816 71.1667L101.985 92.5622H117.617L95.4592 59.4826L117.92 25.6443H103.047Z" fill="white"/>
<path d="M163.297 24.127C154.647 24.127 147.666 27.4653 142.506 33.8384V25.6444H129.151V122H142.506V86.1891C147.059 91.5001 153.129 94.2314 160.414 94.2314C169.823 94.2314 177.411 90.7414 183.027 84.0648C188.49 77.3881 191.222 68.4354 191.222 57.3583C191.222 47.4951 188.794 39.3011 183.937 33.3832C178.929 27.1618 172.1 24.127 163.297 24.127ZM160.717 35.811C165.877 35.811 169.823 37.6319 172.859 41.2737C175.894 45.0673 177.411 50.3782 177.411 57.0548C177.411 65.0971 175.742 71.4702 172.403 76.0225C169.216 80.423 164.815 82.5473 159.048 82.5473C154.192 82.5473 150.246 80.8782 147.059 77.5399C143.872 74.0498 142.354 70.1046 142.354 65.0971V56.1444C142.354 50.3782 144.023 45.3707 147.362 41.5772C150.853 37.6319 155.254 35.811 160.717 35.811Z" fill="white"/>
<path d="M236.751 24.4304C232.653 24.4304 229.011 25.7961 225.672 28.5274C224.003 29.8931 222.485 31.714 221.271 33.6866V25.4926H207.916V92.5623H221.271V58.4205C221.271 51.5921 222.637 46.2812 225.369 42.4876C228.101 38.6941 231.136 36.8732 235.082 36.8732C238.117 36.8732 240.393 37.4802 241.911 38.6941L244.339 40.515V25.7961L243.429 25.3409C241.911 24.7339 239.635 24.4304 236.751 24.4304Z" fill="white"/>
<path d="M282.735 24.127C273.933 24.127 266.497 27.4653 260.578 33.9901C254.659 40.515 251.776 49.0125 251.776 59.3309C251.776 70.2563 254.507 78.7538 259.971 84.8235C265.434 90.8931 273.023 94.0797 282.432 94.0797C291.993 94.0797 299.733 91.9553 305.652 87.7066L306.259 87.2513V73.7464L303.83 75.719C298.063 80.2712 291.689 82.5474 284.86 82.5474C278.79 82.5474 274.237 80.8782 270.898 77.2364C267.711 73.8981 266.041 69.1941 265.586 63.2762H310.66V56.4479C310.66 46.4329 308.232 38.5424 303.375 32.928C298.367 27.01 291.538 24.127 282.735 24.127ZM282.584 35.811C287.137 35.811 290.627 37.1767 293.207 40.2115C295.484 42.9429 296.849 46.7364 297.001 51.4404H265.89C266.8 47.0399 268.621 43.2464 271.353 40.515C274.388 37.3284 278.031 35.811 282.584 35.811Z" fill="white"/>
<path d="M362.715 61.1517C361.045 59.6343 358.92 58.2686 356.644 57.0547C354.368 55.8408 351.788 54.7786 348.904 53.7164C346.779 52.9577 344.958 52.199 343.289 51.4403C341.771 50.8333 340.405 50.0746 339.343 49.3159C338.432 48.5572 337.674 47.7985 337.067 46.888C336.611 45.9776 336.308 44.7636 336.308 43.398C336.308 42.3358 336.611 41.4253 337.067 40.5149C337.522 39.6044 338.281 38.8457 339.191 38.2388C340.102 37.4801 341.316 37.0248 342.682 36.5696C344.048 36.1144 345.717 35.9626 347.386 35.9626C353.153 35.9626 358.313 37.4801 362.866 40.3631L365.143 41.8806V27.7686L364.232 27.3134C359.679 25.3408 354.519 24.2786 348.752 24.2786C345.565 24.2786 342.378 24.7338 339.343 25.4925C336.308 26.2512 333.424 27.6169 330.996 29.286C328.568 30.9552 326.595 33.0796 325.077 35.5074C323.56 38.087 322.801 40.9701 322.801 44.3084C322.801 46.888 323.256 49.3159 324.015 51.2885C324.774 53.2611 325.988 55.082 327.657 56.7512C329.175 58.2686 331.148 59.6343 333.424 60.8482C335.549 62.0621 338.129 63.1243 341.012 64.3383C342.985 65.097 344.958 65.8557 346.628 66.6144C348.297 67.3731 349.815 68.1318 351.029 68.8905C352.243 69.6492 353.153 70.5597 353.761 71.6218C354.368 72.5323 354.671 73.7462 354.671 75.1119C354.671 78.2985 353.457 82.5472 342.682 82.5472C336.308 82.5472 330.389 80.5746 325.229 76.6293L322.801 74.8084V89.6791L323.56 90.1343C328.568 92.7139 334.638 94.0796 341.316 94.0796C344.806 94.0796 348.145 93.6243 351.181 92.8656C354.368 92.1069 357.251 90.893 359.679 89.2238C362.259 87.5547 364.232 85.4303 365.75 83.0024C367.267 80.4228 368.026 77.388 368.026 74.0497C368.026 71.3184 367.571 68.7388 366.66 66.7661C365.75 64.6417 364.384 62.8209 362.715 61.1517Z" fill="white"/>
<path d="M424.634 66.6144C423.723 64.49 422.358 62.6691 420.688 61.1517C419.019 59.6343 416.894 58.2686 414.618 57.0547C412.341 55.8408 409.761 54.7786 406.878 53.7164C404.753 52.9577 402.932 52.199 401.262 51.4403C399.745 50.8333 398.379 50.0746 397.317 49.3159C396.406 48.5572 395.647 47.7985 395.04 46.888C394.585 45.9776 394.281 44.7636 394.281 43.398C394.281 42.3358 394.585 41.4253 395.04 40.5149C395.495 39.6044 396.254 38.8457 397.165 38.2388C398.075 37.4801 399.29 37.0248 400.655 36.5696C402.021 36.1144 403.691 35.9626 405.36 35.9626C411.127 35.9626 416.287 37.4801 420.84 40.3631L423.116 41.8806V27.7686L422.206 27.3134C417.653 25.3408 412.493 24.2786 406.726 24.2786C403.539 24.2786 400.352 24.7338 397.317 25.4925C394.281 26.2512 391.398 27.6169 388.97 29.286C386.541 30.9552 384.569 33.0796 383.051 35.5074C381.533 38.087 380.774 40.9701 380.774 44.3084C380.774 46.888 381.23 49.3159 381.989 51.2885C382.747 53.2611 383.961 55.082 385.631 56.7512C387.148 58.2686 389.121 59.6343 391.398 60.8482C393.523 62.0621 396.103 63.1243 398.986 64.3383C400.959 65.097 402.932 65.8557 404.601 66.6144C406.271 67.3731 407.788 68.1318 409.002 68.8905C410.217 69.6492 411.127 70.5597 411.734 71.6218C412.341 72.5323 412.645 73.7462 412.645 75.1119C412.645 78.2985 411.431 82.5472 400.655 82.5472C394.281 82.5472 388.363 80.5746 383.203 76.6293L380.774 74.8084V89.6791L381.533 90.1343C386.541 92.7139 392.612 94.0796 399.29 94.0796C402.78 94.0796 406.119 93.6243 409.154 92.8656C412.341 92.1069 415.225 90.893 417.653 89.2238C420.233 87.5547 422.206 85.4303 423.723 83.0024C425.241 80.4228 426 77.388 426 74.0497C426 71.1666 425.545 68.7388 424.634 66.6144Z" fill="white"/>
</g>
<defs>
<clipPath id="clip0_342_42">
<rect width="426" height="122" fill="white"/>
</clipPath>
</defs>
</svg>
