<svg id="圖層_1" data-name="圖層 1" xmlns="http://www.w3.org/2000/svg" viewBox="0 0 155.7 36.76"><defs><style>.cls-1{fill:none;}.cls-2{fill:#042b2b;}.cls-3{fill:#44b9ae;}</style></defs><title>fresh-swift-logo</title><rect class="cls-1" y="0.03" width="155.7" height="36.7"/><path class="cls-2" d="M268.74,436.43l-.34-2.38c1.7-.26,3.24-.52,4.77-.86a43.65,43.65,0,0,0,4.52-1.19l.51,2.3c-1.45.43-3,.85-4.52,1.2S270.53,436.18,268.74,436.43Zm1.36-20.11a19,19,0,0,0,2.31-3.67,24.11,24.11,0,0,0,1.45-3.75l2.13.6a12.3,12.3,0,0,1-.6,1.62h1.36a2,2,0,0,1,1.62.59,1.7,1.7,0,0,1,.09,1.71,6.58,6.58,0,0,1-.68,1.53c-.26.51-.6.94-.86,1.45h.26a1.66,1.66,0,0,1,1.53.68,2.08,2.08,0,0,1,.26,1.45l-1.19,11.85h-8.1L271,416.91Zm2,11.76h1.1l.34-3.75h-1.1Zm.51-5.8h1.1l.35-3.49h-1.11Zm.08-5.79h2c.26-.43.6-.94.85-1.45a11.57,11.57,0,0,0,.69-1.54h-1.79A32.22,32.22,0,0,1,272.66,416.49Zm2.22,11.59h1l.34-3.75h-1Zm.51-5.8h1l.34-3.49h-1Zm6.39,14.83.68-7.5h-3.83l.25-2.38h3.84l.43-4.35h-3.33l.26-2.47h3.32l.43-4.35H280l.26-2.39h2c-.17-.68-.42-1.28-.59-2a9,9,0,0,0-.68-1.79l2.13-.76c.25.59.51,1.27.76,1.87s.34,1.28.6,2l-1.53.6h2.89a21.05,21.05,0,0,0,.94-2.22,23,23,0,0,0,.77-2.3l2.22.77c-.18.59-.43,1.19-.69,1.87a17.32,17.32,0,0,1-.85,1.88h1.79L289.8,416h-3.58l-.43,4.34H289l-.26,2.47h-3.24l-.42,4.35h3.83l-.25,2.39h-3.84l-.6,7.58Z" transform="translate(-220 -403.97)"/><path class="cls-2" d="M292.52,436.77l-1.45-2c.6-.51,1.11-1.11,1.62-1.62a8.78,8.78,0,0,0,1.37-1.71l1.28-10.65h-2.13l.25-2.64h2.3a1.92,1.92,0,0,1,1.62.68,2.73,2.73,0,0,1,.43,2l-1.11,9.63a6.67,6.67,0,0,0,3.07,3.07,10.9,10.9,0,0,0,4.77,1,14.12,14.12,0,0,0,3.5-.34,12.88,12.88,0,0,0,2.72-1l.86,2.3a11,11,0,0,1-3.24,1.19,20.65,20.65,0,0,1-4.18.43,12.84,12.84,0,0,1-4.69-.85,9.31,9.31,0,0,1-3.92-2.82A21.51,21.51,0,0,1,292.52,436.77Zm6.74-22.33-2.3,1a22.68,22.68,0,0,0-2.14-5.2l2.22-1A27,27,0,0,1,299.26,414.44Zm4,18.75.77-7.75a25.83,25.83,0,0,1-5.11,6.22l-1.54-1.79a27.15,27.15,0,0,0,3.16-3.07,23.68,23.68,0,0,0,2.38-3.49H299.6l.77-7.25h4.51l.26-2.22h-5.29l.26-2h5.28l.26-2.73H308l-.25,2.73h5.37l-.26,2h-5.28l-.26,2.14h2.81c.77,0,1.28.17,1.54.59A2.48,2.48,0,0,1,312,418l-.6,5.29h-4.77l-.17,1.19,1.28-.85c.76,1.1,1.53,2.21,2.21,3.32a30.52,30.52,0,0,1,2,3.75l-2,1.28c-.51-1.19-1.11-2.3-1.7-3.41s-1.28-2.13-1.88-3.07l-.76,7.67Zm-1.28-12h2.39l.26-3.06h-2.39Zm4.78,0h2.56l.34-3.06H307Z" transform="translate(-220 -403.97)"/><path class="cls-2" d="M316,436.77l-1.44-2a15.3,15.3,0,0,0,1.7-1.62c.51-.51,1-1.11,1.53-1.71L319,420.83h-2.38l.25-2.64h2.47a2.28,2.28,0,0,1,1.71.68,2.74,2.74,0,0,1,.43,2l-1.28,10.49a6.41,6.41,0,0,0,3.15,2.39,11.67,11.67,0,0,0,4.35.76,16,16,0,0,0,3.66-.34,13.8,13.8,0,0,0,2.82-1l.85,2.3a11.64,11.64,0,0,1-3.33,1.19,20.79,20.79,0,0,1-4.26.43,14.51,14.51,0,0,1-4.6-.77,8.64,8.64,0,0,1-3.92-2.64C318,434.73,317,435.75,316,436.77Zm6.57-22.24-2.3,1.1c-.34-.93-.77-1.87-1.2-2.81s-.93-1.7-1.36-2.47l2.22-1.11a24.41,24.41,0,0,1,1.36,2.47A16.69,16.69,0,0,1,322.53,414.53Zm-.77,17.9L323.55,416h3.92a7.85,7.85,0,0,0-.85-1,8.16,8.16,0,0,0-.77-.85l1.54-1.28c.42.43.85.94,1.28,1.45s.85,1.11,1.27,1.62c.52-.6.94-1.19,1.45-1.79a17.13,17.13,0,0,0,1.37-2h-8.7l.26-2.13H334a1.52,1.52,0,0,1,1.53.77,1.59,1.59,0,0,1-.25,1.7c-.34.51-.77,1.11-1.19,1.79l-1.37,1.88h.77a2.33,2.33,0,0,1,1.7.59,1.92,1.92,0,0,1,.52,1.71l-1.2,11.5a3.13,3.13,0,0,1-.85,2.22,2.76,2.76,0,0,1-1.88.85l-.76.09-.17-2.39.59-.08a.56.56,0,0,0,.51-.34,4.44,4.44,0,0,0,.26-1l.17-1.45h-2.9L329,432h-2.13l.42-4.18h-2.81l-.51,4.86h-2.22Zm3-7h2.73l.26-2.56H325Zm.52-4.61H328l.26-2.47h-2.73Zm4.34,4.61h2.9l.26-2.56h-2.9Zm.43-4.61h2.9l.25-2.47h-2.9Z" transform="translate(-220 -403.97)"/><path class="cls-2" d="M341,437.11l1.27-12.27c-.68.68-1.45,1.36-2.21,2.05l-1.79-2a38.07,38.07,0,0,0,4.17-4,40.34,40.34,0,0,0,3.41-4.35l2,1.71c-.42.59-.85,1.1-1.27,1.7s-.94,1.11-1.37,1.71l-1.62,15.51H341Zm.34-18.75-1.88-1.79A35.64,35.64,0,0,0,343,413a34.51,34.51,0,0,0,2.81-4l2.13,1.44a37.38,37.38,0,0,1-3,4.1A30.54,30.54,0,0,1,341.37,418.36Zm7.5,13.21a6.1,6.1,0,0,0,.76,2.31,1.48,1.48,0,0,0,1.37.68c1.19,0,1.87-1,2-3.07l1.11-10.74h-5.88l.26-2.81h11.16l-.25,2.81h-2.65l-1.1,11a7.7,7.7,0,0,1-1.37,3.93,3.74,3.74,0,0,1-3.24,1.53,4,4,0,0,1-3.24-1.36,7.71,7.71,0,0,1-1.53-3.67Zm11-21.31-.25,2.82h-10l.26-2.82Z" transform="translate(-220 -403.97)"/><path class="cls-3" d="M256.6,420.9c.1,1.4.2,2.7.3,4.1-1.1.1-2,.1-2.9.1a34.44,34.44,0,0,1-13.5-2.5,105.93,105.93,0,0,0-13.5-4.3c-.8-.2-1.5-.3-2.4-.5a1,1,0,0,1,.4-.5c.5-.6,1.1-1.2,1.6-1.9a1.72,1.72,0,0,1,1.5-.6h24.3a1.17,1.17,0,0,1,1.1.5,16.57,16.57,0,0,1,2.2,3.4c-4.5.2-9,0-13.4.6v.2c.2.1.5.3.7.4a16.68,16.68,0,0,0,7.3,1.4c1.9,0,3.8-.1,5.6-.2A.84.84,0,0,1,256.6,420.9Z" transform="translate(-220 -403.97)"/><path class="cls-3" d="M223.3,427.6h13.5c-.2-.2-.3-.3-.4-.3a32.59,32.59,0,0,0-6.2-2.2,34,34,0,0,0-7.8-.4c-1.2.1-1,.2-1.4-.9s-.6-2.1-1-3.2c1.1.1,2,.1,2.9.2a59.25,59.25,0,0,1,16,3.8,64.12,64.12,0,0,0,13.5,3.6c.5.1,1.1.1,1.7.2-.5.6-.9,1.2-1.4,1.8a4,4,0,0,1-3.7,1.7c-6.8-.1-13.6-.1-20.3-.1a3.7,3.7,0,0,1-3.1-1.3l-2.5-2.8C223.2,427.7,223.2,427.7,223.3,427.6Z" transform="translate(-220 -403.97)"/><path class="cls-3" d="M256.8,429.2A19.8,19.8,0,0,1,238,440.7a19.22,19.22,0,0,1-12.1-4.9,18.69,18.69,0,0,1-5.4-8.1c1.2,1,2.3,2,3.5,2.9a25,25,0,0,0,26,2.7,20.81,20.81,0,0,0,5.1-3.7C255.6,428.9,256.1,429.2,256.8,429.2Z" transform="translate(-220 -403.97)"/><path class="cls-3" d="M238,404a19.83,19.83,0,0,0-6.4,1.4,19.11,19.11,0,0,0-5.1,3.2,18.6,18.6,0,0,0-3.7,4.2c-.9,1.4-1.5,2.9-2.3,4.3a11.27,11.27,0,0,1,2.4.5,29,29,0,0,1,2.9-3,22.15,22.15,0,0,1,6.5-3.3,27.41,27.41,0,0,1,9.9-1,26.44,26.44,0,0,1,10,2.6c1.6.8,3.1,1.8,4.6,2.6A19.15,19.15,0,0,0,238,404Z" transform="translate(-220 -403.97)"/></svg>