<svg width="725" height="99" viewBox="0 0 725 99" fill="none" xmlns="http://www.w3.org/2000/svg">
<path d="M0 97.5857H13.5594V58.6143H45.4083V46.2H13.5594V18.8572H47.931V6.44287H0V97.5857Z" fill="white"/>
<path d="M92.2357 30.4856C88.294 30.4856 84.51 31.8999 81.3566 34.5713C79.7799 35.9856 78.3609 37.557 77.0996 39.4427V31.5856H63.8555V97.5856H77.0996V63.957C77.0996 57.357 78.5186 52.0142 81.1989 48.2427C83.8793 44.6285 86.875 42.8999 90.659 42.8999C93.6547 42.8999 95.862 43.5285 97.281 44.6285L99.8037 46.5142V31.8999L98.8577 31.4285C97.281 30.7999 95.0737 30.4856 92.2357 30.4856Z" fill="white"/>
<path d="M137.486 30.0144C128.815 30.0144 121.404 33.3144 115.57 39.7573C109.737 46.2001 106.899 54.5287 106.899 64.743C106.899 75.4287 109.579 83.9144 114.94 89.8858C120.3 96.0144 127.711 99.0001 137.013 99.0001C146.473 99.0001 154.199 96.8001 159.875 92.7144L160.506 92.243V78.7287L157.983 80.7716C152.307 85.1716 146.158 87.3715 139.378 87.3715C133.387 87.3715 128.972 85.643 125.661 82.1858C122.665 79.043 120.931 74.4858 120.458 68.6715H164.92V61.7573C164.92 52.0144 162.555 44.1573 157.825 38.6573C153.095 33.0001 146.158 30.0144 137.486 30.0144ZM137.329 41.643C141.743 41.643 145.212 43.0573 147.735 45.8858C149.942 48.5573 151.203 52.1715 151.519 56.8858H120.931C121.877 52.643 123.611 49.0287 126.292 46.2001C129.288 43.2144 132.914 41.643 137.329 41.643Z" fill="white"/>
<path d="M216.478 66.4716C214.744 64.9001 212.852 63.643 210.487 62.3858C208.279 61.2858 205.599 60.1858 202.761 59.0858C200.711 58.3001 198.819 57.5144 197.243 56.8858C195.666 56.2573 194.405 55.4715 193.459 54.6858C192.513 53.9001 191.724 53.1144 191.251 52.3287C190.778 51.3858 190.621 50.2858 190.621 49.0287C190.621 47.9287 190.778 46.9858 191.251 46.2001C191.724 45.2573 192.355 44.6287 193.301 44.0001C194.247 43.3715 195.351 42.743 196.77 42.4287C198.189 42.1144 199.765 41.8001 201.5 41.8001C207.176 41.8001 212.221 43.2144 216.636 46.043L219.001 47.6144V33.4715L218.055 33.0001C213.482 31.1144 208.437 30.0144 202.761 30.0144C199.608 30.0144 196.454 30.4858 193.459 31.2715C190.463 32.0573 187.625 33.3144 185.26 34.8858C182.895 36.6144 180.845 38.6573 179.426 41.0144C178.007 43.5287 177.219 46.3573 177.219 49.6573C177.219 52.3287 177.692 54.5287 178.48 56.5716C179.268 58.6144 180.53 60.343 182.106 61.9144C183.683 63.4858 185.575 64.743 187.782 66.0001C189.99 67.1001 192.513 68.3573 195.351 69.4573C197.4 70.243 199.292 71.0287 201.027 71.6573C202.603 72.2858 204.022 73.0716 205.284 73.8573C206.387 74.643 207.333 75.5858 207.964 76.5287C208.595 77.4716 208.91 78.5716 208.91 79.9858C208.91 83.1287 207.649 87.2144 197.243 87.2144C190.936 87.2144 185.26 85.3287 180.057 81.4001L177.534 79.5144V94.443L178.322 94.9144C183.368 97.5858 189.202 98.843 195.981 98.843C199.45 98.843 202.603 98.5287 205.757 97.743C208.91 96.9573 211.748 95.7001 214.271 94.1287C216.793 92.5573 218.843 90.3573 220.262 87.843C221.839 85.3287 222.627 82.343 222.627 78.8858C222.627 76.2144 222.154 73.7001 221.208 71.6573C219.474 69.9287 218.055 68.043 216.478 66.4716Z" fill="white"/>
<path d="M270.243 30.0143C262.359 30.0143 255.737 33 250.85 38.9714V1.41431H237.605V97.5857H250.85V60.3429C250.85 54.8429 252.426 50.2857 255.58 46.8286C258.733 43.3714 262.359 41.6429 266.774 41.6429C275.603 41.6429 279.86 47.6143 279.86 59.7143V97.4286H293.105V57.2C293.262 39.2857 285.536 30.0143 270.243 30.0143Z" fill="white"/>
<path d="M415.109 86.1142C412.429 86.7428 409.906 86.5856 407.856 85.9571C406.753 85.4856 405.649 84.8571 404.545 84.0713C403.442 83.1285 402.338 82.0285 401.234 80.6142C400.288 79.3571 399.185 78.0999 398.081 76.5285C399.815 74.0142 401.392 71.3428 402.969 68.5142C404.703 65.2142 406.28 61.7571 407.699 58.1428C408.96 54.5285 410.064 50.7571 410.852 46.9856C411.64 43.0571 412.113 39.2856 412.113 35.3571L411.956 30.9571C411.956 29.6999 411.64 28.2856 411.325 26.8713L411.01 25.6142H397.923L398.396 27.4999C398.712 28.7571 399.027 30.1713 399.185 31.4285C399.342 32.6856 399.5 34.0999 399.5 35.6713C399.5 41.6428 398.712 47.2999 396.977 52.6428C395.558 57.3571 393.509 61.5999 390.986 65.5285C389.725 63.7999 388.463 62.0713 387.202 60.3428C385.468 57.9856 383.576 55.7856 381.684 53.8999C379.634 51.8571 377.427 49.9713 375.062 48.3999C373.643 47.4571 372.066 46.5142 370.331 45.5713C374.589 43.5285 377.9 41.0142 380.265 38.3428C383.26 34.8856 384.837 30.3285 384.837 25.1428C384.837 22.1571 384.206 19.3285 383.103 16.8142C381.999 14.2999 380.265 12.0999 378.215 10.3713C376.165 8.64277 373.643 7.22848 370.804 6.28562C367.966 5.34277 364.813 4.87134 361.502 4.87134C358.191 4.87134 354.88 5.34277 352.042 6.28562C349.046 7.22848 346.366 8.64277 344.159 10.5285C341.951 12.4142 340.217 14.7713 338.956 17.4428C337.694 20.1142 337.064 23.2571 337.064 26.7142C337.064 29.0713 337.379 31.2713 338.01 33.3142C338.64 35.3571 339.429 37.0856 340.532 38.8142C341.478 40.3856 342.74 41.9571 344.001 43.2142C344.632 43.8428 345.262 44.3142 345.893 44.9428C340.217 47.7713 335.802 51.0713 332.491 55.1571C328.707 59.8713 326.815 65.5285 326.815 72.1285C326.815 76.3713 327.604 80.2999 329.18 83.5999C330.757 86.8999 332.964 89.8856 335.802 92.0856C338.64 94.2856 341.951 96.1713 345.893 97.2713C349.677 98.3713 353.934 98.9999 358.506 98.9999C362.29 98.9999 365.759 98.5285 369.07 97.7428C372.224 96.9571 375.219 95.8571 378.057 94.5999C380.738 93.3428 383.26 91.7713 385.468 90.0428C387.202 88.7856 388.621 87.5285 390.04 86.1142C391.301 87.6856 392.405 89.0999 393.509 90.3571C394.928 92.0856 396.504 93.6571 398.081 94.9142C399.658 96.1713 401.55 97.1142 403.442 97.8999C405.334 98.5285 407.699 98.9999 410.221 98.9999C411.798 98.9999 413.533 98.8428 415.267 98.5285C417.001 98.2142 418.578 97.7428 420.155 97.1142L421.101 96.7999V84.2285L418.893 84.8571C417.632 85.3285 416.371 85.7999 415.109 86.1142ZM358.349 87.0571C355.826 87.0571 353.303 86.7428 351.096 86.1142C348.889 85.4856 346.997 84.5428 345.42 83.1285C343.843 81.8713 342.582 80.2999 341.636 78.4142C340.69 76.5285 340.217 74.3285 340.217 71.6571C340.217 68.8285 340.69 66.3142 341.478 64.2713C342.267 62.2285 343.528 60.3428 344.947 58.7713C346.366 57.1999 348.258 55.7856 350.15 54.6856C352.042 53.5856 354.249 52.4856 356.457 51.5428C359.295 52.6428 361.975 53.8999 364.182 55.1571C366.547 56.5713 368.755 58.1428 370.804 60.1856C372.854 62.0713 374.904 64.4285 377.111 67.0999C379.003 69.6142 381.053 72.5999 383.26 75.8999C381.999 77.1571 380.738 78.4142 379.319 79.5142C377.584 80.9285 375.692 82.1856 373.643 83.2856C371.593 84.3856 369.228 85.1713 366.705 85.7999C364.182 86.7428 361.344 87.0571 358.349 87.0571ZM368.912 33.9428C366.705 36.1428 363.079 38.0285 358.506 39.5999C357.403 38.9713 356.457 38.3428 355.353 37.5571C354.249 36.6142 353.303 35.6713 352.357 34.4142C351.569 33.3142 350.938 32.0571 350.465 30.6428C349.992 29.3856 349.835 27.9713 349.835 26.3999C349.835 23.0999 350.938 20.5856 352.988 18.6999C355.038 16.8142 357.876 15.8713 361.502 15.8713C362.763 15.8713 364.025 16.0285 365.286 16.4999C366.547 16.8142 367.651 17.4428 368.597 18.2285C369.543 19.0142 370.489 20.1142 371.12 21.3713C371.751 22.6285 372.066 24.0428 372.066 25.9285C372.224 29.2285 371.12 31.7428 368.912 33.9428Z" fill="white"/>
<path d="M496.697 57.0428C494.49 54.8428 491.809 52.9571 488.971 51.0713C486.133 49.3428 482.98 47.6142 479.826 46.0428C476.831 44.4713 473.993 43.2142 471.785 41.9571C469.578 40.6999 467.528 39.4428 466.109 38.1856C464.69 36.9285 463.587 35.6713 462.798 34.2571C462.01 32.8428 461.695 31.1142 461.695 29.0713C461.695 27.0285 462.168 25.1428 463.114 23.7285C464.06 22.3142 465.321 21.0571 466.898 20.1142C468.474 19.1713 470.366 18.3856 472.416 18.0713C474.623 17.5999 476.673 17.4428 478.88 17.4428C486.606 17.4428 493.071 19.1713 498.116 22.6285L500.639 24.3571V8.64277L499.85 8.17134C495.593 5.97134 489.129 4.87134 480.142 4.87134C476.2 4.87134 472.258 5.34277 468.474 6.28562C464.69 7.22848 461.222 8.79991 458.226 10.8428C455.23 12.8856 452.708 15.5571 450.816 18.6999C448.924 21.8428 447.978 25.6142 447.978 30.0142C447.978 33.4713 448.608 36.6142 449.87 39.2856C451.131 41.9571 452.708 44.3142 454.915 46.3571C456.965 48.3999 459.33 50.2856 462.168 51.8571C464.848 53.4285 467.844 54.9999 470.839 56.5713C473.677 57.9856 476.515 59.3999 479.038 60.8142C481.403 62.0713 483.61 63.4856 485.345 64.8999C487.079 66.1571 488.34 67.7285 489.286 69.2999C490.232 70.8713 490.705 72.5999 490.705 74.6428C490.705 78.5713 489.444 81.5571 486.606 83.5999C483.768 85.7999 479.353 86.7428 473.362 86.7428C471.628 86.7428 469.736 86.5856 467.528 86.2713C465.479 85.9571 463.271 85.4856 461.222 84.6999C459.172 84.0713 457.122 83.2856 455.23 82.3428C453.338 81.3999 451.762 80.4571 450.5 79.1999L447.82 76.8428V93.3428L448.451 93.8142C449.712 94.5999 451.446 95.3856 453.496 96.1713C455.388 96.7999 457.595 97.4285 459.803 97.7428C462.01 98.2142 464.06 98.5285 466.267 98.6856C468.317 98.8428 470.209 98.9999 471.628 98.9999C475.885 98.9999 479.984 98.5285 483.926 97.7428C487.867 96.7999 491.336 95.3856 494.49 93.4999C497.643 91.4571 500.008 88.7856 501.9 85.6428C503.792 82.3428 504.738 78.4142 504.738 73.8571C504.738 70.3999 504.107 67.2571 502.688 64.4285C500.796 61.5999 498.904 59.2428 496.697 57.0428Z" fill="white"/>
<path d="M577.738 79.0428L564.652 31.5857H553.142L538.479 78.8857L525.393 31.5857H511.518L531.542 97.5857H543.997L558.187 52.1714L571.274 97.5857H584.045L603.911 31.5857H590.667L577.738 79.0428Z" fill="white"/>
<path d="M628.665 31.5857H615.421V97.5857H628.665V31.5857Z" fill="white"/>
<path d="M622.2 2.5144C619.993 2.5144 618.101 3.30012 616.524 4.87155C614.948 6.44298 614.159 8.32869 614.159 10.6858C614.159 13.043 614.948 14.9287 616.524 16.5001C618.101 18.0715 619.993 18.8573 622.2 18.8573C624.408 18.8573 626.458 18.0715 628.034 16.5001C629.611 14.9287 630.399 13.043 630.399 10.843C630.399 8.48583 629.611 6.60012 628.034 5.02869C626.458 3.30012 624.566 2.5144 622.2 2.5144Z" fill="white"/>
<path d="M675.019 0C668.87 0 663.667 2.04286 659.568 6.12857C655.468 10.2143 653.419 15.8714 653.419 22.7857V31.4286H642.697V43.2143H653.419V97.4286H666.663V43.2143H681.484V31.4286H666.505V23.2571C666.505 12.7286 671.708 11.4714 675.492 11.4714C677.7 11.4714 679.749 11.9429 681.484 12.8857L683.849 14.1429V1.57143L682.903 1.1C680.853 0.471429 678.33 0 675.019 0Z" fill="white"/>
<path d="M725 43.2143V31.4286H709.076V12.4143L695.831 16.6572V31.5857H684.952V43.3715H695.831V79.0429C695.831 92.0857 702.138 99 713.963 99C718.063 99 721.531 98.2143 724.212 96.8L725 96.3286V83.6L722.477 85.4857C720.901 86.7429 719.009 87.2143 716.801 87.2143C713.963 87.2143 712.071 86.4286 710.968 85.1714C709.706 83.6 709.233 80.9286 709.233 77.1572V43.2143H725Z" fill="white"/>
</svg>
